<?xml version="1.0" encoding="iso-8859-1"?>
<!-- Generator: Adobe Illustrator 19.0.0, SVG Export Plug-In . SVG Version: 6.00 Build 0)  -->
<svg version="1.1" id="Capa_1" xmlns="http://www.w3.org/2000/svg" xmlns:xlink="http://www.w3.org/1999/xlink" x="0px" y="0px"
	 viewBox="0 0 480 480" style="enable-background:new 0 0 480 480;" xml:space="preserve">
<rect x="8" y="8" style="fill:#7FCCCB;" width="464" height="216"/>
<path style="fill:#2BB3CE;" d="M472,224H8l195.2-28.8C316.8,177.6,416.8,108.8,472,8l0,0V224z"/>
<g>
	<path style="fill:#DD1C4B;" d="M392,240L392,240c4.8-34.4,29.6-62.4,62.4-71.2l1.6-0.8l0,0c-50.4-24.8-84.8-73.6-92-128.8L360,8
		h112v232H392z"/>
	<path style="fill:#DD1C4B;" d="M88,240L88,240c-4.8-34.4-29.6-62.4-62.4-71.2L24,168l0,0c50.4-24.8,84.8-73.6,92-128.8L120,8H8v232
		H88z"/>
</g>
<g>
	<path style="fill:#E3472C;" d="M8,8v232h40c0-25.6-11.2-48.8-31.2-64.8L8,168l0,0c36-31.2,60-73.6,66.4-120.8L80,8H8z"/>
	<path style="fill:#E3472C;" d="M472,8v232h-40c0-25.6,11.2-48.8,31.2-64.8l8.8-7.2l0,0c-36-31.2-60-73.6-66.4-120.8L400,8H472z"/>
</g>
<path style="fill:#DD1C4B;" d="M468.8,404c-1.6-2.4-4.8-4-8-4H432v-50.4c0-3.2-0.8-7.2-3.2-9.6c-1.6-2.4-4.8-4-8-4H392v-50.4
	c0-3.2-0.8-7.2-3.2-9.6c-1.6-2.4-4.8-4-8-4h-49.6c-3.2,0-6.4,1.6-8,4c-2.4,2.4-3.2,6.4-3.2,9.6c0-3.2-1.6-7.2-4-9.6s-5.6-4-8.8-4
	H252c-3.2,0-6.4,1.6-8.8,4c-1.6,1.6-2.4,3.2-2.4,4.8c-0.8,1.6-0.8,3.2-0.8,4.8c0-3.2-1.6-7.2-4-9.6s-5.6-4-8.8-4H172
	c-3.2,0-6.4,1.6-8.8,4c-1.6,1.6-2.4,3.2-2.4,4.8c-0.8,1.6-0.8,3.2-0.8,4.8c0-3.2-0.8-7.2-3.2-9.6c-1.6-2.4-4.8-4-8-4H99.2
	c-3.2,0-6.4,1.6-8,4c-2.4,2.4-3.2,6.4-3.2,9.6V336H59.2c-3.2,0-6.4,1.6-8,4c-2.4,2.4-3.2,6.4-3.2,9.6V400H19.2c-3.2,0-6.4,1.6-8,4
	c-2.4,2.4-3.2,6.4-3.2,9.6V472h464v-58.4C472,410.4,471.2,406.4,468.8,404z M120.8,344.8c-0.8,1.6-0.8,3.2-0.8,4.8
	c0-1.6,0-4-0.8-5.6L120.8,344.8C120.8,344,120.8,344,120.8,344.8z M199.2,344h2.4c0,0,0,0,0,0.8c-1.6,1.6-1.6,3.2-1.6,4.8
	C200,348,199.2,345.6,199.2,344z M279.2,344h2.4c0,0,0,0,0,0.8c-1.6,1.6-1.6,3.2-1.6,4.8C280,348,279.2,345.6,279.2,344z M359.2,344
	h2.4c-1.6,1.6-1.6,4-1.6,5.6C360,348,359.2,345.6,359.2,344z M80,413.6c0-1.6,0-4-0.8-5.6h2.4c0,0,0,0,0,0.8
	C80,410.4,80,412,80,413.6z M160,413.6c0-1.6-0.8-4-0.8-5.6h2.4c0,0,0,0,0,0.8C160,410.4,160,412,160,413.6z M240,413.6
	c0-1.6-0.8-4-0.8-5.6h2.4c0,0,0,0,0,0.8C240,410.4,240,412,240,413.6z M320,413.6c0-1.6-0.8-4-0.8-5.6h2.4c0,0,0,0,0,0.8
	C320,410.4,320,412,320,413.6z M399.2,408h2.4c-1.6,1.6-1.6,4-1.6,5.6C400,412,399.2,409.6,399.2,408z"/>
<path d="M8,248h80c4.8,0,8-3.2,8-8v-0.8c0-2.4-0.8-4.8-1.6-7.2h291.2c-0.8,2.4-0.8,4.8-1.6,7.2c-0.8,4,2.4,8.8,6.4,8.8h0.8h80
	c4.8,0,8-3.2,8-8V0H8C3.2,0,0,3.2,0,8v232C0,244.8,3.2,248,8,248z M55.2,232c-1.6-19.2-9.6-37.6-22.4-52.8
	C55.2,188.8,72,208,78.4,232H55.2z M424.8,232h-22.4c6.4-23.2,23.2-43.2,45.6-52.8C434.4,194.4,426.4,212.8,424.8,232L424.8,232z
	 M464,232h-23.2c1.6-18.4,10.4-34.4,23.2-47.2V232z M464,16v133.6c-27.2-28-44.8-64.8-50.4-103.2l-4-30.4H464z M392.8,16l4.8,32
	c5.6,39.2,22.4,75.2,48,104.8c-40-25.6-67.2-67.2-73.6-114.4L368.8,16H392.8z M127.2,16h225.6l3.2,24.8c7.2,52,36.8,98.4,80.8,126.4
	c-20.8,10.4-37.6,28-46.4,49.6H89.6c-8.8-21.6-25.6-39.2-46.4-49.6c44-28,73.6-74.4,80.8-126.4L127.2,16z M82.4,48l4.8-32h24
	L108,38.4c-6.4,47.2-33.6,89.6-73.6,114.4C60,123.2,76.8,87.2,82.4,48z M16,16h54.4l-4,29.6c-5.6,39.2-23.2,75.2-50.4,104V16z
	 M16,184.8c13.6,12,21.6,28.8,23.2,47.2H16V184.8z"/>
<path d="M480,472v-58.4c0-5.6-1.6-10.4-4.8-14.4c-3.2-4-8.8-7.2-14.4-7.2H440v-42.4c0-5.6-1.6-10.4-4.8-14.4
	c-3.2-4-8.8-7.2-14.4-7.2H400v-42.4c0-5.6-1.6-10.4-4.8-14.4c-3.2-4-8.8-7.2-14.4-7.2h-49.6c-4,0-8,1.6-11.2,4c-3.2-2.4-8-4-12-4
	h-55.2c-4.8,0-8.8,1.6-12.8,4.8c-3.2-3.2-8-4.8-12-4.8h-55.2c-4.8,0-8.8,1.6-12,4c-3.2-2.4-7.2-4-11.2-4H100
	c-5.6,0-10.4,2.4-14.4,7.2c-4,4-5.6,8.8-5.6,14.4V328H59.2c-5.6,0-10.4,2.4-14.4,7.2c-3.2,4-4.8,8.8-4.8,14.4V392H19.2
	c-5.6,0-10.4,2.4-14.4,7.2c-3.2,4-4.8,8.8-4.8,14.4V480h480V472z M328,285.6c0-1.6,0.8-3.2,1.6-4.8c0.8-0.8,0.8-0.8,1.6-0.8h49.6
	c0.8,0,1.6,0.8,1.6,0.8c0.8,1.6,1.6,3.2,1.6,4.8V328h-12.8c-4,0-8,1.6-11.2,4c-3.2-2.4-8-4-12-4h-20V285.6z M248,285.6
	c0-1.6,0.8-3.2,1.6-4c0.8-0.8,1.6-1.6,3.2-1.6H308c0.8,0,2.4,0.8,3.2,1.6c0.8,0.8,1.6,2.4,1.6,4V328h-20c-4.8,0-8.8,1.6-12.8,4.8
	c-3.2-3.2-8-4.8-12-4.8h-20V285.6z M168,285.6c0-1.6,0.8-3.2,1.6-4s1.6-1.6,3.2-1.6H228c0.8,0,2.4,0.8,3.2,1.6
	c0.8,0.8,1.6,2.4,1.6,4V328h-20c-4.8,0-8.8,1.6-12.8,4.8c-3.2-3.2-8-4.8-12-4.8h-20V285.6z M96,285.6c0-1.6,0.8-3.2,1.6-4.8
	c0.8-0.8,0.8-0.8,1.6-0.8h49.6c0.8,0,1.6,0.8,1.6,0.8c0.8,1.6,1.6,3.2,1.6,4.8V328h-19.2c-4.8,0-8.8,1.6-12,4c-3.2-2.4-7.2-4-11.2-4
	H96V285.6z M72,464H16v-50.4c0-1.6,0.8-3.2,1.6-4.8c0,0,0.8-0.8,1.6-0.8h49.6c0.8,0,1.6,0.8,1.6,0.8c0.8,1.6,1.6,3.2,1.6,4.8V464z
	 M68.8,392H56v-42.4c0-1.6,0.8-3.2,1.6-4.8c0,0,0.8-0.8,1.6-0.8h49.6c0.8,0,1.6,0.8,1.6,0.8c0.8,1.6,1.6,3.2,1.6,4.8V392H92.8
	c-4.8,0-8.8,1.6-12,4C76.8,393.6,72.8,392,68.8,392L68.8,392z M152,464H88v-50.4c0-1.6,0.8-3.2,1.6-4c0.8-0.8,1.6-1.6,3.2-1.6H148
	c0.8,0,2.4,0.8,3.2,1.6c0.8,0.8,1.6,2.4,1.6,4L152,464z M147.2,392H128v-42.4c0-1.6,0.8-3.2,1.6-4s1.6-1.6,3.2-1.6H188
	c0.8,0,2.4,0.8,3.2,1.6c0.8,0.8,1.6,2.4,1.6,4V392h-20c-4.8,0-8.8,1.6-12.8,4.8C156.8,393.6,152,392,147.2,392L147.2,392z M232,464
	h-64v-50.4c0-1.6,0.8-3.2,1.6-4s1.6-1.6,3.2-1.6H228c0.8,0,2.4,0.8,3.2,1.6c0.8,0.8,1.6,2.4,1.6,4L232,464z M227.2,392H208v-42.4
	c0-1.6,0.8-3.2,1.6-4s1.6-1.6,3.2-1.6H268c0.8,0,2.4,0.8,3.2,1.6c0.8,0.8,1.6,2.4,1.6,4V392h-20c-4.8,0-8.8,1.6-12.8,4.8
	C236.8,393.6,232,392,227.2,392L227.2,392z M312,464h-64v-50.4c0-1.6,0.8-3.2,1.6-4c0.8-0.8,1.6-1.6,3.2-1.6H308
	c0.8,0,2.4,0.8,3.2,1.6c0.8,0.8,1.6,2.4,1.6,4L312,464z M307.2,392H288v-42.4c0-1.6,0.8-3.2,1.6-4c0.8-0.8,1.6-1.6,3.2-1.6H348
	c0.8,0,2.4,0.8,3.2,1.6c0.8,0.8,1.6,2.4,1.6,4V392h-20c-4.8,0-8.8,1.6-12.8,4.8C316.8,393.6,312,392,307.2,392L307.2,392z M392,464
	h-64v-50.4c0-1.6,0.8-3.2,1.6-4c0.8-0.8,1.6-1.6,3.2-1.6H388c0.8,0,2.4,0.8,3.2,1.6c0.8,0.8,1.6,2.4,1.6,4L392,464z M387.2,392H368
	v-42.4c0-1.6,0.8-3.2,1.6-4.8c0.8-0.8,0.8-0.8,1.6-0.8h49.6c0.8,0,1.6,0.8,1.6,0.8c0.8,1.6,1.6,3.2,1.6,4.8V392h-12.8
	c-4,0-8,1.6-11.2,4C396,393.6,392,392,387.2,392L387.2,392z M464,464h-56v-50.4c0-1.6,0.8-3.2,1.6-4.8c0.8-0.8,0.8-0.8,1.6-0.8h49.6
	c0.8,0,1.6,0.8,1.6,0.8c0.8,1.6,1.6,3.2,1.6,4.8L464,464z"/>
<g>
</g>
<g>
</g>
<g>
</g>
<g>
</g>
<g>
</g>
<g>
</g>
<g>
</g>
<g>
</g>
<g>
</g>
<g>
</g>
<g>
</g>
<g>
</g>
<g>
</g>
<g>
</g>
<g>
</g>
</svg>
