<?xml version="1.0" encoding="iso-8859-1"?>
<!-- Generator: Adobe Illustrator 19.0.0, SVG Export Plug-In . SVG Version: 6.00 Build 0)  -->
<svg version="1.1" id="Capa_1" xmlns="http://www.w3.org/2000/svg" xmlns:xlink="http://www.w3.org/1999/xlink" x="0px" y="0px"
	 viewBox="0 0 511.816 511.816" style="enable-background:new 0 0 511.816 511.816;" xml:space="preserve">
<g>
	<g>
		<path d="M20.949,298.483v160c0,29.419,23.936,53.333,53.333,53.333h384c29.419,0,53.333-23.915,53.333-53.333v-160H20.949z"/>
	</g>
</g>
<g>
	<g>
		<polygon points="252.757,48.776 172.927,67.72 239.807,166.131 326.271,146.462 		"/>
	</g>
</g>
<g>
	<g>
		<polygon points="150.741,72.99 64.703,93.384 130.879,190.878 217.471,171.187 		"/>
	</g>
</g>
<g>
	<g>
		<path d="M511.274,93.086l-18.155-68.864c-4.181-16.747-21.333-27.285-38.251-23.424l-71.68,17.024l68.011,100.267l52.117-11.861
			c2.837-0.64,5.269-2.411,6.763-4.885S511.999,95.902,511.274,93.086z"/>
	</g>
</g>
<g>
	<g>
		<polygon points="360.981,23.091 275.413,43.4 349.055,141.299 428.863,123.144 		"/>
	</g>
</g>
<g>
	<g>
		<polygon points="128.447,191.838 94.314,277.15 178.005,277.15 212.138,191.838 		"/>
	</g>
</g>
<g>
	<g>
		<polygon points="235.114,191.838 200.981,277.15 284.671,277.15 318.805,191.838 		"/>
	</g>
</g>
<g>
	<g>
		<path d="M500.949,191.838h-52.501l-34.133,85.333h97.301v-74.667C511.615,196.595,506.858,191.838,500.949,191.838z"/>
	</g>
</g>
<g>
	<g>
		<polygon points="341.781,191.838 307.647,277.15 391.317,277.15 425.471,191.838 		"/>
	</g>
</g>
<g>
	<g>
		<path d="M42.517,98.675l-17.387,4.117c-8.469,1.92-15.637,7.061-20.181,14.443c-4.544,7.403-5.888,16.107-3.776,24.533
			l19.776,78.165v57.216h50.389l32.021-80.021l5.205-1.173L42.517,98.675z"/>
	</g>
</g>
<g>
</g>
<g>
</g>
<g>
</g>
<g>
</g>
<g>
</g>
<g>
</g>
<g>
</g>
<g>
</g>
<g>
</g>
<g>
</g>
<g>
</g>
<g>
</g>
<g>
</g>
<g>
</g>
<g>
</g>
</svg>
