<svg id="Layer_1" height="512" viewBox="0 0 512 512" width="512" xmlns="http://www.w3.org/2000/svg" data-name="Layer 1"><path d="m313.027 366.762a7.581 7.581 0 0 0 -5.4 2.246 7.714 7.714 0 0 0 0 10.878 7.629 7.629 0 0 0 10.812 0 7.717 7.717 0 0 0 0-10.878 7.585 7.585 0 0 0 -5.412-2.246z"/><path d="m227.545 365.2a5 5 0 0 1 -.543-6.5l26.992-37.2-42.263-25.413-.337 131.23 32.779-45.768z"/><path d="m371.791 323.216a7.581 7.581 0 0 0 5.405-2.246 7.714 7.714 0 0 0 0-10.878 7.627 7.627 0 0 0 -10.81 0 7.714 7.714 0 0 0 0 10.878 7.585 7.585 0 0 0 5.405 2.246z"/><path d="m131.61 292.273.28 145.727h69.477l.375-145.785a58.022 58.022 0 0 1 -70.132.058z"/><path d="m199 254.907v-24.237a67.067 67.067 0 0 1 -31.182 7.543 68.141 68.141 0 0 1 -33.818-8.981v25.675c9 9.027 20.15 14.168 32.5 14.168s24.5-5.142 32.5-14.168z"/><path d="m79.346 322.3 27.754 36.3a5 5 0 0 1 -.551 6.683l-17.41 16.343 32.731 45.7-.252-131.019z"/><path d="m226 163.446c0-2.761 2.034-5.446 4.795-5.446h3.139a6.505 6.505 0 1 0 0-13h-3.134a4.871 4.871 0 0 1 -4.8-5.048v-21.027c0-13.476-5.88-23.046-19.147-31.235-4.744 8.7-16.16 16.945-41.882 16.945-20.068 0-33.256-4.51-39.941-13.749-9.314 7.22-15.03 15.041-15.03 28.039v21.027a4.845 4.845 0 0 1 -4.763 5.048h-3.137a6.505 6.505 0 1 0 0 13h3.139c2.761 0 4.761 2.685 4.761 5.446v7.116c0 31.789 26.141 57.651 58 57.651s58-25.862 58-57.651z"/><path d="m210.791 58.924a21.211 21.211 0 0 0 21.209-21.189v-1.162c-11 2.508-27.164 3.288-48.688 2.318-20.63-.93-39.869-3.21-45.285-3.887a9.86 9.86 0 0 0 -3.441.107 10.445 10.445 0 0 0 -8.1 10.209 20.526 20.526 0 0 1 -20.519 20.487 7.838 7.838 0 0 0 -7.321 4.953l-.6 1.5a77.059 77.059 0 0 0 0 57.3l1.95 4.892v-15.527c0-20.414 11.517-31.06 23.833-39.525a5.267 5.267 0 0 1 4.41-.662 5.007 5.007 0 0 1 3.193 2.943l.072.177c5.244 12.777 26.537 12.777 33.534 12.777 25.185 0 32.613-8.355 34.4-15.364a5.038 5.038 0 0 1 2.84-3.334 5.113 5.113 0 0 1 4.412.145c12.54 6.604 29.31 18.23 29.31 42.843v9.615a102.793 102.793 0 0 0 -3.58-65.88l-.7-1.761a31.156 31.156 0 0 1 -20.9 8.025 5 5 0 0 1 -.025-10z"/><path d="m79.1 377.332 17.308-16.247-28.368-37.106a5 5 0 0 1 1.353-7.3l52.2-32.1v-2.06a57.441 57.441 0 0 1 -12.669-31.674 213.82 213.82 0 0 1 -40.478 13.757 66.8 66.8 0 0 0 -51.446 65.174v108.224h43v-58.391a5 5 0 0 1 10 0v58.391h47.168l-38.709-54.08a5.041 5.041 0 0 1 .641-6.588zm-34.1 44.468a5 5 0 0 1 -10 0v-70.073a5 5 0 0 1 10 0zm0-87.594a5 5 0 0 1 -10 0v-5.8a5 5 0 0 1 10 0z"/><path d="m119 246.038v.214a48 48 0 0 0 96 0v-1.741l-6-3v15.289a5.016 5.016 0 0 1 -1.2 3.237 54.143 54.143 0 0 1 -82.442 0 5.177 5.177 0 0 1 -1.358-3.237v-13.574z"/><path d="m378.1 368.288a8.767 8.767 0 0 0 -12.427 0 8.864 8.864 0 0 0 0 12.5 8.766 8.766 0 0 0 12.428 0 8.863 8.863 0 0 0 0-12.5z"/><path d="m430.735 366.943a7.585 7.585 0 0 0 -5.406 2.246 7.715 7.715 0 0 0 0 10.878 7.629 7.629 0 0 0 10.812 0 7.715 7.715 0 0 0 0-10.878 7.585 7.585 0 0 0 -5.406-2.246z"/><path d="m371.881 348.076a26.164 26.164 0 0 0 -18.647 7.746 26.548 26.548 0 0 0 0 37.431 26.32 26.32 0 0 0 37.294 0 26.548 26.548 0 0 0 0-37.431 26.163 26.163 0 0 0 -18.647-7.746zm13.294 39.772a18.766 18.766 0 0 1 -26.588 0 18.882 18.882 0 0 1 0-26.622 18.769 18.769 0 0 1 26.589 0 18.881 18.881 0 0 1 -.001 26.622z"/><path d="m371.881 292.339c-45.2 0-81.966 36.874-81.966 82.2s36.77 82.2 81.966 82.2 81.966-36.874 81.966-82.2-36.769-82.2-81.966-82.2zm-12.576 10.692a17.626 17.626 0 0 1 24.972 0 17.731 17.731 0 0 1 0 25 17.629 17.629 0 0 1 -24.972 0 17.731 17.731 0 0 1 0-25zm-33.791 83.916a17.626 17.626 0 0 1 -24.972 0 17.729 17.729 0 0 1 0-25 17.629 17.629 0 0 1 24.972 0 17.733 17.733 0 0 1 0 25zm58.944 59.1a17.63 17.63 0 0 1 -24.973 0 17.73 17.73 0 0 1 0-25 17.626 17.626 0 0 1 24.972 0 17.731 17.731 0 0 1 .001 24.997zm13.15-45.73a36.317 36.317 0 0 1 -51.454 0 36.564 36.564 0 0 1 0-51.554 36.317 36.317 0 0 1 51.454 0 36.564 36.564 0 0 1 0 51.551zm33.127-8a17.516 17.516 0 0 1 -12.486-5.185 17.733 17.733 0 0 1 0-25 17.629 17.629 0 0 1 24.972 0 17.732 17.732 0 0 1 0 25 17.514 17.514 0 0 1 -12.486 5.181z"/><path d="m377.377 428.1a7.628 7.628 0 0 0 -10.811 0 7.715 7.715 0 0 0 0 10.878 7.628 7.628 0 0 0 10.811 0 7.714 7.714 0 0 0 0-10.878z"/><path d="m490 421.688a27.352 27.352 0 0 0 -27.443 27.325 18 18 0 0 1 -18.103 17.987h-29.042a102 102 0 0 0 58.766-92.641c0-56.565-45.89-102.495-102.3-102.495s-102.3 46.064-102.3 102.629a102.436 102.436 0 0 0 97.9 102.327l76.968.18a28.014 28.014 0 0 0 28.1-27.987 17.417 17.417 0 0 1 17.454-17.413 4.956 4.956 0 1 0 0-9.911zm-210.085-47.151c0-50.838 41.256-92.2 91.966-92.2s91.966 41.36 91.966 92.2-41.256 92.2-91.966 92.2-91.966-41.361-91.966-92.2z"/><path d="m301.553 288a67.5 67.5 0 0 0 -36.744-23.388 191.571 191.571 0 0 1 -40.392-14.9 57.434 57.434 0 0 1 -12.65 32.683v2.042l52.056 31.3a5.009 5.009 0 0 1 1.471 7.229l-27.664 38.142 16.609 16.343a4.989 4.989 0 0 1 .56 6.469l-38.714 54.08h46.915v-39.917a111.825 111.825 0 0 1 38.553-110.083z"/></svg>