<svg id="Capa_1" enable-background="new 0 0 512.004 512.004" height="512" viewBox="0 0 512.004 512.004" width="512" xmlns="http://www.w3.org/2000/svg"><g><path d="m497.004 302.001h-15v-287c0-8.284-6.716-15-15-15s-15 6.716-15 15v21.846c-86.35 33.26-183.65 33.26-270 0v-21.846c0-8.284-6.716-15-15-15s-15 6.716-15 15v287h-15c-8.284 0-15 6.716-15 15s6.716 15 15 15h25.845l125 75-128.563 77.138c-7.104 4.262-9.407 13.476-5.145 20.58 4.256 7.094 13.467 9.413 20.58 5.145l142.282-85.369 142.282 85.369c7.132 4.278 16.333 1.933 20.58-5.145 4.263-7.104 1.959-16.317-5.145-20.58l-128.563-77.138 125-75h25.845c8.284 0 15-6.716 15-15s-6.713-15-14.998-15zm-315-113.161c43.386 15.374 88.695 23.161 135 23.161s91.614-7.787 135-23.161v113.161h-270zm135 200.668-95.845-57.507h191.691z"/><path d="m105.004 362.001h-11.702l-3.588-17.942c-1.402-7.011-7.559-12.058-14.709-12.058h-30c-7.15 0-13.307 5.047-14.709 12.058l-30 150c-1.852 9.263 5.232 17.942 14.709 17.942h90c9.447 0 16.566-8.651 14.709-17.942l-8.499-42.497c21.884-3.035 38.79-21.856 38.79-44.562-.001-24.812-20.187-44.999-45.001-44.999zm.295 59.985-5.997-29.985h5.703c8.271 0 15 6.729 15 15-.001 8.172-6.571 14.826-14.706 14.985z"/></g></svg>